<svg width="1432" height="1226" viewBox="0 0 1432 1226" fill="none" xmlns="http://www.w3.org/2000/svg">
<path d="M1289.37 153.405C1308.17 155.916 1322.81 153.78 1342.31 159.342C1433.33 185.316 1431.04 264.893 1431.03 341.137V425.506L1430.99 692.313L1430.96 952.149L1431 1034.56C1431.06 1051.57 1431 1068.78 1431.12 1085.68C1431.45 1134.28 1414.29 1183.86 1369.26 1208.11C1345.93 1220.67 1324.77 1222.14 1298.87 1223.62C1265.89 1225.5 1233.1 1224.99 1200.05 1224.96H1074.5L625.402 1223.69L274.898 1222.96C248.747 1222.89 222.596 1223.01 196.446 1223.33C129.704 1224.01 53.088 1231.52 16.167 1161.58C-3.33597 1124.64 0.247012 1079.18 0.277012 1038.47L0.326023 943.769L0.32703 646.584L0.339024 300.808L0.239018 194.076C-0.0309823 127.27 -6.11398 50.9139 64.743 14.9619C103.127 -4.51412 157.505 0.565878 200.002 0.676878L284.772 0.550871C299.046 0.511871 321.564 -0.137123 335.246 1.62288C373.911 6.59488 408.11 34.4389 439.039 56.4839L495.529 96.4519C508.25 105.41 542.484 132.539 554.134 136.318C640.399 135.371 726.672 134.968 812.942 135.111C853.512 134.99 901.532 132.847 941.342 134.756C955.862 135.778 989.512 132.768 1005.3 131.813C1052.07 128.838 1098.82 125.616 1145.55 122.149C1171.28 120.171 1201.28 117.08 1226.96 120.278C1234.9 121.267 1250.37 129.663 1256.27 134.826C1271.63 139.54 1277.89 142.018 1289.37 153.405Z" fill="#272828"/>
<path d="M1289.37 153.405C1308.17 155.916 1322.81 153.78 1342.31 159.342C1433.33 185.316 1431.04 264.893 1431.03 341.137V425.506L1430.99 692.313L1430.96 952.149L1431 1034.56C1431.06 1051.57 1431 1068.78 1431.12 1085.68C1431.45 1134.28 1414.29 1183.86 1369.26 1208.11C1345.93 1220.67 1324.77 1222.14 1298.87 1223.62C1265.89 1225.5 1233.1 1224.99 1200.05 1224.96H1074.5L625.402 1223.69L274.898 1222.96C248.747 1222.89 222.596 1223.01 196.446 1223.33C129.704 1224.01 53.088 1231.52 16.167 1161.58C-3.33597 1124.64 0.247012 1079.18 0.277012 1038.47L0.326023 943.769L0.32703 646.584L0.339024 300.808L0.239018 194.076C-0.0309823 127.27 -6.11398 50.9139 64.743 14.9619C103.127 -4.51412 157.505 0.565878 200.002 0.676878L284.772 0.550871C299.046 0.511871 321.564 -0.137123 335.246 1.62288C373.911 6.59488 408.11 34.4389 439.039 56.4839L495.529 96.4519C508.25 105.41 542.484 132.539 554.134 136.318C640.399 135.371 726.672 134.968 812.942 135.111C853.512 134.99 901.532 132.847 941.342 134.756C955.862 135.778 989.512 132.768 1005.3 131.813C1052.07 128.838 1098.82 125.616 1145.55 122.149C1171.28 120.171 1201.28 117.08 1226.96 120.278C1234.9 121.267 1250.37 129.663 1256.27 134.826C1271.63 139.54 1277.89 142.018 1289.37 153.405Z" fill="url(#paint0_linear_156_30)"/>
<path d="M941.342 134.756C955.862 135.778 989.512 132.768 1005.3 131.813C1052.07 128.838 1098.82 125.616 1145.55 122.149C1171.28 120.171 1201.28 117.08 1226.96 120.278C1234.9 121.267 1250.37 129.663 1256.27 134.826C1258.39 138.224 1263.11 145.096 1264.67 148.115C1273.1 164.473 1275.43 189.557 1275.62 208.154C1238.12 209.794 1201.5 208.588 1164.02 208.576L963.052 208.564L417.44 208.567C317.912 208.515 215.955 206.776 116.589 208.739C117.301 195.007 123.233 168.255 137.275 162.464L139.459 163.373C154.581 148.482 159.746 142.349 181.692 139.019C200.291 136.197 216.488 137.134 235.144 137.22L302.317 137.319C386.253 136.488 470.194 136.154 554.134 136.318C640.399 135.371 726.672 134.968 812.942 135.111C853.512 134.99 901.532 132.847 941.342 134.756Z" fill="black"/>
<path d="M554.134 136.318C640.399 135.371 726.672 134.968 812.942 135.111C853.512 134.99 901.532 132.847 941.342 134.756C935.722 138.493 873.832 141.37 863.492 142.078L733.432 151.185L324.679 179.899L235.354 186.046C204.455 188.124 157.029 188.837 129.215 200.287C130.535 183.821 131.639 178.225 139.459 163.373C154.581 148.482 159.746 142.349 181.692 139.019C200.291 136.197 216.488 137.134 235.144 137.22L302.317 137.319C386.253 136.488 470.194 136.154 554.134 136.318Z" fill="#FEFEFE"/>
<path d="M148.839 158.1C153.312 157.947 156.511 157.36 159.823 160.114C161.7 163.493 161.25 166.44 161.258 170.403C156.953 170.522 153.502 171.091 150.228 168.523C148.23 165.093 148.77 162.181 148.839 158.1Z" fill="black"/>
<path d="M1256.27 134.826C1271.63 139.54 1277.89 142.018 1289.37 153.405C1297.81 165.153 1302.84 174.315 1303.72 189.204L1328.32 189.197L1328.19 208.282C1310.76 208.488 1293 208.928 1275.62 208.154C1275.43 189.557 1273.1 164.473 1264.67 148.115C1263.11 145.096 1258.39 138.224 1256.27 134.826Z" fill="#FEFEFE"/>
<path d="M176.851 953.3H154.223V946.879H206.817V953.3H184.088V1014.56H176.851V953.3ZM213.044 945.86H219.975V977.355C222.829 969.473 228.197 965.532 236.079 965.532C241.244 965.532 245.287 967.196 248.209 970.526C251.199 973.788 252.694 978.442 252.694 984.49V1014.56H245.559V984.898C245.559 980.617 244.573 977.355 242.603 975.113C240.7 972.87 237.948 971.749 234.347 971.749C229.59 971.749 225.989 973.652 223.542 977.457C221.164 981.195 219.975 986.631 219.975 993.766V1014.56H213.044V945.86ZM284.395 1015.48C279.639 1015.48 275.46 1014.46 271.858 1012.42C268.325 1010.31 265.607 1007.39 263.704 1003.65C261.801 999.915 260.85 995.6 260.85 990.708C260.85 985.815 261.835 981.466 263.806 977.661C265.845 973.856 268.631 970.9 272.164 968.793C275.698 966.619 279.707 965.532 284.192 965.532C291.055 965.532 296.423 967.74 300.296 972.157C304.237 976.506 306.208 982.486 306.208 990.096V992.746H267.985C268.189 997.843 269.752 1001.92 272.674 1004.98C275.596 1008.04 279.503 1009.56 284.395 1009.56C288.812 1009.56 292.278 1008.65 294.792 1006.81C297.374 1004.91 299.243 1002.43 300.398 999.372L306.616 1001.72C304.985 1005.79 302.335 1009.12 298.665 1011.7C295.064 1014.22 290.307 1015.48 284.395 1015.48ZM298.869 987.344C298.733 982.248 297.34 978.307 294.69 975.521C292.108 972.735 288.574 971.342 284.09 971.342C279.605 971.342 275.867 972.803 272.878 975.724C269.956 978.578 268.291 982.452 267.883 987.344H298.869ZM345.132 1015.68C338.677 1015.68 333.003 1014.25 328.11 1011.4C323.218 1008.48 319.413 1004.37 316.695 999.066C314.044 993.766 312.719 987.616 312.719 980.617C312.719 973.686 314.078 967.57 316.796 962.27C319.515 956.97 323.354 952.893 328.314 950.039C333.275 947.185 339.051 945.758 345.642 945.758C352.097 945.758 357.771 947.219 362.664 950.141C367.556 952.995 371.328 957.072 373.978 962.372C376.696 967.672 378.055 973.822 378.055 980.821C378.055 987.752 376.696 993.868 373.978 999.168C371.26 1004.47 367.42 1008.55 362.46 1011.4C357.5 1014.25 351.724 1015.68 345.132 1015.68ZM345.234 1009.16C350.331 1009.16 354.781 1008.04 358.587 1005.79C362.392 1003.55 365.314 1000.32 367.353 996.11C369.391 991.897 370.41 986.902 370.41 981.127V980.311C370.41 974.603 369.391 969.643 367.353 965.43C365.314 961.217 362.426 957.989 358.689 955.747C354.951 953.436 350.568 952.281 345.54 952.281C340.444 952.281 335.993 953.402 332.188 955.645C328.382 957.887 325.46 961.115 323.422 965.328C321.383 969.541 320.364 974.501 320.364 980.209V981.025C320.364 986.733 321.349 991.727 323.32 996.008C325.358 1000.22 328.246 1003.48 331.984 1005.79C335.721 1008.04 340.138 1009.16 345.234 1009.16ZM386.838 966.449H393.871V977.763C395.162 973.822 397.167 970.798 399.885 968.691C402.603 966.517 406.001 965.43 410.078 965.43C415.31 965.43 419.387 967.095 422.309 970.424C425.299 973.754 426.794 978.442 426.794 984.49V1014.56H419.659V984.898C419.659 980.617 418.674 977.355 416.703 975.113C414.732 972.87 411.98 971.749 408.447 971.749C403.69 971.749 400.089 973.652 397.643 977.457C395.196 981.195 393.973 986.631 393.973 993.766V1014.56H386.838V966.449ZM458.389 1015.48C453.632 1015.48 449.453 1014.46 445.852 1012.42C442.318 1010.31 439.6 1007.39 437.698 1003.65C435.795 999.915 434.844 995.6 434.844 990.708C434.844 985.815 435.829 981.466 437.8 977.661C439.838 973.856 442.624 970.9 446.158 968.793C449.691 966.619 453.7 965.532 458.185 965.532C465.048 965.532 470.416 967.74 474.29 972.157C478.231 976.506 480.201 982.486 480.201 990.096V992.746H441.979C442.183 997.843 443.745 1001.92 446.667 1004.98C449.589 1008.04 453.496 1009.56 458.389 1009.56C462.806 1009.56 466.271 1008.65 468.786 1006.81C471.368 1004.91 473.236 1002.43 474.392 999.372L480.609 1001.72C478.978 1005.79 476.328 1009.12 472.659 1011.7C469.057 1014.22 464.301 1015.48 458.389 1015.48ZM472.863 987.344C472.727 982.248 471.334 978.307 468.684 975.521C466.102 972.735 462.568 971.342 458.083 971.342C453.598 971.342 449.861 972.803 446.871 975.724C443.949 978.578 442.284 982.452 441.877 987.344H472.863Z" fill="white"/>
<path d="M181.757 905.111C175.913 905.111 170.647 903.684 165.958 900.83C161.27 897.976 157.566 893.899 154.848 888.599C152.198 883.299 150.873 877.183 150.873 870.252C150.873 863.185 152.232 857.001 154.95 851.701C157.668 846.401 161.372 842.324 166.06 839.47C170.817 836.616 176.151 835.189 182.063 835.189C189.741 835.189 196.163 837.295 201.327 841.508C206.559 845.653 209.855 852.211 211.214 861.18L203.468 861.282C202.38 854.147 199.968 849.119 196.231 846.197C192.493 843.275 187.771 841.814 182.063 841.814C177.51 841.814 173.433 842.935 169.832 845.178C166.298 847.42 163.512 850.648 161.473 854.861C159.503 859.074 158.518 864.068 158.518 869.844V870.456C158.518 876.232 159.503 881.226 161.473 885.439C163.512 889.652 166.298 892.88 169.832 895.122C173.365 897.365 177.408 898.486 181.961 898.486C187.669 898.486 192.425 896.991 196.231 894.001C200.104 890.943 202.55 885.813 203.57 878.61L211.316 878.712C210.025 887.75 206.729 894.409 201.429 898.69C196.129 902.971 189.572 905.111 181.757 905.111ZM232.872 905.111C227.844 905.111 223.869 903.854 220.947 901.34C218.025 898.826 216.564 895.53 216.564 891.453C216.564 888.123 217.345 885.473 218.908 883.503C220.471 881.532 222.51 880.037 225.024 879.018C227.538 877.998 230.8 877.081 234.809 876.266C236.168 875.994 237.289 875.722 238.172 875.45C241.91 874.703 244.662 874.023 246.429 873.412C248.195 872.732 249.384 871.781 249.996 870.558V869.946C249.996 867.024 249.045 864.748 247.142 863.117C245.239 861.486 242.249 860.671 238.172 860.671C234.095 860.671 230.868 861.52 228.489 863.219C226.179 864.918 225.024 867.466 225.024 870.864V871.373H217.787C217.855 866.073 219.757 862.03 223.495 859.244C227.232 856.39 232.125 854.963 238.172 854.963C244.288 854.963 248.909 856.356 252.035 859.142C255.228 861.928 256.825 866.141 256.825 871.781V898.18L256.927 903.99H249.894V895.53C248.127 898.86 245.749 901.306 242.759 902.869C239.769 904.364 236.474 905.111 232.872 905.111ZM233.79 899.505C238.07 899.505 241.604 898.418 244.39 896.243C247.244 894.001 249.113 890.671 249.996 886.255V876.47C248.977 877.489 247.55 878.304 245.715 878.916C243.948 879.459 241.502 880.071 238.376 880.751C237.629 880.886 236.779 881.056 235.828 881.26C231.955 882.211 228.999 883.401 226.96 884.828C224.922 886.187 223.903 888.293 223.903 891.147C223.903 893.661 224.752 895.7 226.451 897.263C228.217 898.758 230.664 899.505 233.79 899.505ZM285.121 905.213C280.772 905.213 276.763 904.398 273.094 902.767C269.424 901.068 266.468 898.69 264.226 895.632L270.138 892.268C271.973 894.647 274.215 896.447 276.865 897.67C279.583 898.826 282.437 899.403 285.427 899.403C288.689 899.403 291.271 898.656 293.173 897.161C295.144 895.666 296.129 893.661 296.129 891.147C296.129 889.109 295.314 887.546 293.683 886.458C292.052 885.371 289.504 884.386 286.039 883.503L281.961 882.483C278.36 881.668 275.404 880.784 273.094 879.833C270.783 878.882 268.949 877.523 267.59 875.756C266.231 873.989 265.551 871.679 265.551 868.825C265.551 866.175 266.299 863.797 267.793 861.69C269.288 859.584 271.327 857.919 273.909 856.696C276.491 855.472 279.379 854.861 282.573 854.861C286.582 854.861 290.218 855.676 293.479 857.307C296.809 858.87 299.697 861.112 302.143 864.034L296.333 867.5C294.634 865.258 292.562 863.559 290.116 862.404C287.737 861.18 285.189 860.569 282.471 860.569C279.413 860.569 276.967 861.282 275.132 862.709C273.298 864.136 272.38 866.039 272.38 868.417C272.38 870.184 272.924 871.577 274.011 872.596C275.098 873.548 276.831 874.363 279.209 875.043C280.704 875.382 282.777 875.858 285.427 876.47C286.039 876.605 286.548 876.741 286.956 876.877C290.15 877.625 292.902 878.508 295.212 879.527C297.522 880.547 299.391 881.974 300.818 883.808C302.245 885.575 302.959 887.817 302.959 890.536C302.959 893.39 302.211 895.938 300.716 898.18C299.221 900.355 297.115 902.087 294.397 903.378C291.746 904.602 288.655 905.213 285.121 905.213ZM331.779 904.907C327.023 904.907 322.844 903.888 319.242 901.85C315.709 899.743 312.991 896.821 311.088 893.084C309.185 889.346 308.234 885.031 308.234 880.139C308.234 875.246 309.219 870.898 311.19 867.092C313.229 863.287 316.015 860.331 319.548 858.225C323.082 856.05 327.091 854.963 331.575 854.963C338.439 854.963 343.807 857.171 347.68 861.588C351.621 865.937 353.592 871.917 353.592 879.527V882.177H315.369C315.573 887.274 317.136 891.351 320.058 894.409C322.98 897.467 326.887 898.996 331.779 898.996C336.196 898.996 339.662 898.078 342.176 896.243C344.758 894.341 346.627 891.861 347.782 888.803L354 891.147C352.369 895.224 349.719 898.554 346.049 901.136C342.448 903.65 337.691 904.907 331.779 904.907ZM346.253 876.775C346.117 871.679 344.724 867.738 342.074 864.952C339.492 862.166 335.958 860.773 331.474 860.773C326.989 860.773 323.251 862.234 320.262 865.156C317.34 868.01 315.675 871.883 315.267 876.775H346.253ZM379.683 905.213C375.334 905.213 371.325 904.398 367.655 902.767C363.986 901.068 361.03 898.69 358.788 895.632L364.7 892.268C366.534 894.647 368.777 896.447 371.427 897.67C374.145 898.826 376.999 899.403 379.989 899.403C383.25 899.403 385.833 898.656 387.735 897.161C389.706 895.666 390.691 893.661 390.691 891.147C390.691 889.109 389.876 887.546 388.245 886.458C386.614 885.371 384.066 884.386 380.6 883.503L376.523 882.483C372.922 881.668 369.966 880.784 367.655 879.833C365.345 878.882 363.51 877.523 362.151 875.756C360.792 873.989 360.113 871.679 360.113 868.825C360.113 866.175 360.86 863.797 362.355 861.69C363.85 859.584 365.889 857.919 368.471 856.696C371.053 855.472 373.941 854.861 377.135 854.861C381.144 854.861 384.779 855.676 388.041 857.307C391.371 858.87 394.259 861.112 396.705 864.034L390.895 867.5C389.196 865.258 387.124 863.559 384.677 862.404C382.299 861.18 379.751 860.569 377.033 860.569C373.975 860.569 371.529 861.282 369.694 862.709C367.859 864.136 366.942 866.039 366.942 868.417C366.942 870.184 367.486 871.577 368.573 872.596C369.66 873.548 371.393 874.363 373.771 875.043C375.266 875.382 377.339 875.858 379.989 876.47C380.6 876.605 381.11 876.741 381.518 876.877C384.711 877.625 387.463 878.508 389.774 879.527C392.084 880.547 393.953 881.974 395.38 883.808C396.807 885.575 397.52 887.817 397.52 890.536C397.52 893.39 396.773 895.938 395.278 898.18C393.783 900.355 391.676 902.087 388.958 903.378C386.308 904.602 383.216 905.213 379.683 905.213Z" fill="#F5F0EC"/>
<defs>
<linearGradient id="paint0_linear_156_30" x1="-106.25" y1="-93.6579" x2="1279.1" y2="1130.83" gradientUnits="userSpaceOnUse">
<stop stop-color="#FFD7CD"/>
<stop offset="1" stop-color="#FF4B1C"/>
</linearGradient>
</defs>
</svg>
