<svg width="960" height="589" viewBox="0 0 960 589" fill="none" xmlns="http://www.w3.org/2000/svg">
<path d="M57.0799 204.147C26.4432 204.147 16.3702 213.384 12.1767 271.3L0 270.464L5.46139 197.864L6.71527 185.269H237.947L238.783 197.864L244.244 270.464L232.499 271.3C227.888 213.384 218.233 204.147 187.178 204.147H159.899C151.08 204.147 146.05 209.177 146.05 218.414V477.774C146.05 503.382 151.512 510.933 190.536 510.933V521.006H53.7223V510.933C93.1641 510.933 98.6255 503.382 98.6255 477.774V218.414C98.6255 209.177 93.596 204.147 84.359 204.147H57.0799Z" fill="#45403E"/>
<path d="M306.367 477.76C306.367 504.622 310.143 510.919 332.393 510.919V520.992H237.543V510.919C261.882 510.919 266.076 504.622 266.076 477.76L265.658 236.456C265.658 209.595 266.494 204.147 241.318 217.146L237.125 208.327L269.865 191.121L300.92 175.168L306.381 181.048V335.067H307.635C326.513 309.042 345.823 291 374.356 291C402.889 291 420.095 312.4 420.095 351.856V477.76C420.095 504.622 423.871 510.919 448.21 510.919V520.992H354.21V510.919C376.028 510.919 379.818 504.622 379.818 477.76V353.959C379.818 330.874 370.581 320.383 355.06 320.383C337.436 320.383 322.32 332.128 306.381 352.692V477.746L306.367 477.76Z" fill="#45403E"/>
<path d="M592.157 431.185C583.338 498.756 554.805 527.707 515.363 527.707C467.938 527.707 438.137 482.804 438.137 413.561C438.137 344.318 467.52 291.014 517.453 291.014C567.386 291.014 589.635 337.171 589.635 398.445H478.847V399.28C478.847 456.36 496.471 496.638 531.302 496.638C550.18 496.638 572.011 481.954 582.084 431.171H592.157V431.185ZM479.265 381.238H549.344C549.344 340.947 542.21 308.638 517.453 308.638C492.696 308.638 481.787 339.275 479.265 381.238Z" fill="#45403E"/>
<path d="M735.616 588.479C730.183 588.479 724.805 585.971 720.472 581.429C716.097 576.818 713.311 570.534 713.562 565.798L714.648 544.872C715.289 532.472 713.812 522.692 709.842 513.134L705.746 503.256L698.947 491.456L689.236 475.169L684.917 466.67L680.696 457.503L672.852 436.689L667.558 418.075L665.259 409.591L662.166 398.124L660.606 390.323L658.168 378.048C657.137 372.838 656.51 368.212 656.106 362.57L655.479 353.946V353.792C655.924 344.277 658.906 336.113 662.069 328.687C663.908 324.368 666.081 320.913 669.592 316.747C675.847 309.307 681.741 306.2 686.032 303.929C688.567 302.592 690.407 301.617 690.964 300.446L699.17 283.366C700.953 279.66 703.182 276.567 705.788 274.198L709.563 270.771L714.732 266.605C717.463 264.404 721.001 262.621 724.443 261.701L738.444 257.953C738.793 257.856 739.225 257.675 739.698 257.493C740.701 257.076 741.941 256.574 743.349 256.49L749.075 248.605L753.979 242.28C756.194 239.424 758.493 236.651 762.157 234.311L770.697 228.835L783.807 223.123L789.798 223.011C792.891 222.594 795.65 222.385 798.227 222.385C801.139 222.385 803.856 222.635 806.531 223.165C806.781 223.221 807.687 223.374 808.662 223.374C809.094 223.374 809.401 223.346 809.596 223.304C810.39 220.253 809.791 216.45 809.094 212.813L809.039 212.493L809.331 207.324L795.831 110.092L786.064 50.8104C784.811 42.1307 786.399 33.5764 791.066 23.8518C798.98 7.37009 818.568 0 834.465 0C842.113 0 849.33 1.60212 855.349 4.62539C865.979 9.97533 870.354 14.9074 874.826 26.6243L883.116 48.3584L883.144 48.4281C890.959 72.7396 900.809 110.844 901.938 116.18H901.98C913.139 162.964 922.237 202.072 929.161 243.617L940.223 310.004L948.597 342.424C948.847 343.385 949.098 344.332 949.335 345.28C951.731 354.419 953.988 363.043 953.529 372.656L951.857 407.779L944.863 454.229C942.94 467.033 944.821 479.892 947.301 494.172C948.193 499.272 950.366 504.65 952.679 510.334C956.231 519.055 959.896 528.083 959.77 537.961C959.673 545.791 956.635 551.67 951.007 554.958L938.983 561.98L938.022 560.559L906.731 565.421L881.249 569.587L853.217 574.129L800.902 581.318L778.081 583.965L771.352 584.592L749.047 587.1L737.65 588.354C736.982 588.423 736.313 588.465 735.644 588.465L735.616 588.479ZM734.822 564.376C734.822 564.376 734.92 564.418 735.003 564.446C735.226 564.154 735.449 563.694 735.421 563.471L733.108 546.655C733.15 547.045 734.808 564.363 734.808 564.363L734.822 564.376ZM936.615 534.994C936.643 535.161 936.74 535.356 936.852 535.537C937.716 534.562 937.521 532.946 937.381 532.263L929.76 493.727V493.629C929.593 492.333 929.426 491.052 929.259 489.77C927.893 479.084 926.472 468.036 927.726 456.904L930.151 435.323L933.285 411.848C933.717 408.601 934.205 405.355 934.678 402.206C936.113 392.677 937.465 383.677 937.493 374.105C937.493 373.172 937.507 372.225 937.521 371.277C937.562 367.892 937.618 364.451 937.172 361.204L929.468 365.273C930.694 365.927 932.129 366.317 933.884 366.471L936.462 366.707L934.692 392.301L933.202 406.79L929.036 432.509L927.462 446.065C925.776 460.54 925.804 472.731 927.531 484.406L930.972 507.701L936.615 535.008V534.994ZM708.992 481.606L719.232 497.586L729.096 523.235L729.138 523.374C729.932 526.384 730.629 529.449 731.228 532.723L730.879 530.229C727.842 517.049 723.913 505.889 718.898 496.109L703.99 471.198C690.379 448.447 685.029 424.679 679.902 398.18L677.631 386.449L674.524 365.579V365.481C673.925 356.955 673.939 345.837 679.344 335.319C682.187 329.815 685.516 326.095 689.25 324.284C693.416 322.264 698.306 321.108 702.653 321.108C704.366 321.108 705.983 321.289 707.459 321.637C711.277 322.543 713.367 326.513 714.871 329.411C715.038 329.718 715.192 330.024 715.345 330.303L740.966 377.686L755.177 403.725C756.779 406.665 756.25 410.608 753.658 414.815C748.768 422.756 739.197 428.524 730.879 428.524C727.062 428.524 723.607 427.326 720.904 425.041C712.963 418.354 707.139 409.981 701.496 401.872C700.87 400.967 700.243 400.061 699.602 399.155L689.961 385.377C693.318 391.117 697.345 397.107 702.318 403.739L713.394 418.521C718.591 425.459 724.861 429.123 731.52 429.123C736.09 429.123 740.827 427.438 745.578 424.108C751.011 420.304 754.299 416.278 756.25 411.04L757.058 408.852L759.329 409.382C762.087 410.036 764.915 410.357 767.73 410.357C777.524 410.357 786.97 406.316 793.671 399.267L801.529 387.731L803.661 389.013C806.391 390.643 809.164 391.437 812.94 391.66C813.762 391.702 814.584 391.73 815.392 391.73C828.293 391.73 839.606 385.697 845.652 375.582C847.937 371.779 847.408 367.056 846.85 362.068C846.725 360.94 846.6 359.797 846.502 358.683L845.889 351.41L850.946 356.523C850.431 354.405 850.013 352.135 849.651 349.71C849.609 349.39 849.442 348.861 849.288 348.345C848.898 347.091 848.076 344.388 849.177 342.285L846.544 342.479C845.137 342.577 843.688 342.633 842.267 342.633C831.999 342.633 821.382 340.027 809.791 334.664L809.582 334.566L801.362 328.91C797.238 326.067 794.424 322.877 791.428 319.491L791.233 319.269C788.043 315.66 784.838 311.188 785.298 305.448L785.438 303.706L787.095 303.149C788.21 302.773 789.352 302.592 790.592 302.592C792.515 302.592 794.284 303.024 795.998 303.442C796.583 303.581 797.168 303.734 797.753 303.846L808.3 306.047L820.964 308.165C821.522 308.262 822.622 308.415 823.723 308.415C824.517 308.415 825.005 308.332 825.269 308.262L833.406 285.149L834.172 284.661C836.401 283.226 839.118 282.53 842.476 282.53C843.339 282.53 844.259 282.571 845.346 282.669L853.022 283.31C854.025 283.393 855.042 283.463 856.059 283.533C861.187 283.881 866.495 284.243 871.622 286.5L872.026 286.681L872.346 286.988C873.168 287.74 873.656 288.688 873.92 289.719C874.408 289.482 874.965 289.342 875.606 289.342C876.47 289.342 877.306 289.621 878.114 290.192C879.34 291.042 880.148 292.212 880.427 293.466C880.566 293.425 880.719 293.397 880.859 293.369C881.068 293.327 881.277 293.313 881.499 293.313C882.503 293.313 883.464 293.731 884.216 294.483C885.066 295.347 885.554 296.601 885.54 297.897V299.457C885.623 299.276 887.295 296.378 887.295 296.378L889.664 298.064C895.571 302.243 899.834 307.51 904.348 313.083L923.324 336.517L933.188 353.277L926.709 355.952C928.075 356.732 930.234 357.666 932.867 358.307L936.796 359.268C936.49 357.847 936.072 356.467 935.473 355.172C934.511 353.082 933.369 351.117 932.143 349.042C929.705 344.876 927.183 340.585 926.403 335.305L923.463 315.395L918.197 277.639L914.463 251.67L910.492 227.971L900.196 176.548L892.199 142.679L885.832 115.846L872.806 61.3293C869.392 45.9064 864.098 34.5516 856.603 26.5685C850.807 20.3826 842.838 16.9694 834.158 16.9694C827.276 16.9694 820.421 19.1846 814.862 23.211C801.028 33.2282 800.442 48.7346 803.828 68.9501L806.252 80.681L808.23 91.0743L814.667 132.773L815.851 142.762L826.287 210.682L829.115 231.886L830.188 261.004L825.52 256.672C815.837 247.699 807.562 240.831 796.611 240.831C795.845 240.831 795.065 240.859 794.284 240.928C777.956 242.349 765.877 252.213 762.728 266.647L760.388 277.389C760.081 278.796 758.883 280.3 756.459 280.3C755.428 280.3 754.244 280.036 752.697 279.478C748.768 278.043 744.561 277.291 740.52 277.291C735.198 277.291 727.522 278.573 721.169 284.661C713.729 291.78 709.396 302.857 708.978 315.841L708.936 317.318L707.654 318.057C704.798 319.687 701.733 320.202 699.03 320.648L698.32 320.773C686.004 322.891 679.776 331.585 676.725 338.509C672.866 347.272 671.668 358.515 673.437 369.355L676.265 386.589L689.877 442.763L702.904 472.229L708.95 481.703L708.992 481.606ZM730.406 391.298C728.636 391.298 726.964 391.925 725.279 393.206C721.991 395.714 720.723 398.389 721.196 401.844C722.032 407.947 723.732 413.645 726.128 418.312C727.02 420.04 728.316 420.917 730.002 420.917C730.74 420.917 731.534 420.75 732.37 420.43C735.379 419.246 737.776 417.504 740.311 415.651C740.966 415.163 741.635 414.69 742.304 414.216C742.777 413.882 743.251 413.561 743.725 413.241C745.689 411.917 747.417 410.733 748.601 409.047C744.143 400.033 736.968 391.326 730.378 391.326L730.406 391.298Z" fill="#FF743E"/>
<path d="M939.75 558.455C939.624 558.274 939.192 557.703 938.719 557.786L906.299 562.816L880.789 566.982L852.771 571.523L800.526 578.699L777.761 581.346L771.101 581.973L748.74 584.494L737.358 585.748C724.986 587.114 715.847 573.446 716.237 565.937L717.323 545.011C717.922 533.544 716.808 522.928 712.322 512.117L708.156 502.086L701.274 490.132L691.591 473.887L687.355 465.556L683.176 456.472L675.402 435.852L670.135 417.351L667.836 408.894L664.757 397.525L663.211 389.807L660.773 377.533C659.728 372.308 659.143 367.752 658.753 362.374L658.14 353.904C658.53 345.196 661.149 337.617 664.507 329.718C666.374 325.343 668.505 322.152 671.612 318.446C681.81 306.325 691.103 306.284 693.36 301.589L701.566 284.508C703.057 281.401 705.049 278.447 707.585 276.148L711.305 272.777L716.404 268.667C718.884 266.661 722.102 265.059 725.139 264.251L739.141 260.503C740.827 260.057 742.652 258.761 744.644 259.207L751.22 250.151L756.083 243.882C758.409 240.872 760.415 238.56 763.592 236.512L771.951 231.148L784.379 225.728L790.007 225.631C795.357 224.878 800.624 224.669 806.029 225.742C807.604 226.049 811.379 226.439 811.964 224.641C813.218 220.796 812.452 216.254 811.7 212.298L811.978 207.198L798.436 109.715L788.656 50.3785C787.36 41.3923 789.52 33.1722 793.435 24.994C803.312 4.43021 834.548 -2.87013 854.151 6.97988C864.098 11.9815 868.097 16.4398 872.346 27.5577L880.622 49.236C889.706 77.4624 899.388 116.779 899.388 116.779C909.517 159.23 919.367 201.027 926.528 244.049L937.604 310.547L946.005 343.078C948.569 352.97 951.355 362.319 950.868 372.531L949.196 407.515L942.23 453.839C940.182 467.437 942.355 481.216 944.682 494.618C946.98 507.868 957.304 522.19 957.109 537.919C957.026 544.008 954.964 549.566 949.655 552.673L939.778 558.455H939.75ZM867.637 383.579C868.362 383.607 868.891 382.2 868.445 381.629L860.671 371.514C855.614 364.952 853.44 357.498 852.256 349.306C851.936 347.133 849.762 343.566 852.897 342.465L860.295 339.846C861.632 340.083 861.66 338.314 860.448 338.801L846.349 339.818C833.949 340.71 822.121 337.436 810.891 332.239L802.853 326.708C798.91 323.991 796.249 320.94 793.198 317.499C790.244 314.155 787.541 310.31 787.917 305.629C791.052 304.584 794.075 305.768 797.21 306.423L807.813 308.624L820.533 310.756C822.399 311.062 826.259 311.452 827.471 309.92L835.593 286.862C838.435 285.037 841.863 284.995 845.123 285.274L852.799 285.915C858.637 286.403 864.851 286.389 870.549 288.882C872.485 290.68 871.12 295.417 870.563 298.036C873.307 296.921 873.725 290.317 876.609 292.31C877.417 292.867 878.114 293.828 877.835 294.859L874.506 306.966C878.783 303.804 878.351 296.448 881.332 295.918C882.126 295.779 882.907 296.629 882.893 297.813L882.823 305.629C885.47 304.737 886.599 302.842 888.145 300.154C894.066 304.347 898.413 309.878 903.011 315.562L921.15 337.951L929.37 351.911L923.658 354.266C920.384 355.617 925.762 359.212 932.254 360.786L924.773 364.729C927.127 367.543 929.983 368.755 933.634 369.076L932.059 392.008L930.582 406.414L926.417 432.119L924.842 445.744C923.324 458.882 922.989 471.672 924.926 484.782L928.381 508.146L934.038 535.523C934.247 536.568 934.985 537.613 935.626 538.045C936.267 538.476 937.507 538.477 938.343 537.766C940.042 536.345 940.446 534.032 939.987 531.747L932.38 493.295C930.861 481.16 928.994 469.304 930.359 457.183L932.784 435.588L935.904 412.168C937.604 399.364 940.098 387.132 940.14 374.091C940.168 367.362 940.725 360.103 937.925 353.973C934.943 347.467 930.137 342.033 929.064 334.817L926.124 314.908L920.858 277.165L917.124 251.182L913.153 227.428L902.83 175.865L894.819 141.954L888.452 115.121L875.425 60.6046C872.221 46.1152 867.038 33.6598 858.581 24.6457C846.502 11.7585 826.913 11.1456 813.357 20.9538C797.266 32.6011 798.185 50.8661 801.264 69.3261L803.689 81.1127L805.639 91.3806L812.062 132.996L813.26 143.027L823.709 210.988L826.509 232.026L827.345 254.651C817.3 245.345 807.617 237.041 794.089 238.211C777.775 239.632 763.759 249.552 760.179 266.006L757.838 276.748C757.518 278.197 754.968 277.388 753.644 276.915C742.136 272.707 728.58 273.85 719.371 282.669C710.455 291.209 706.763 303.692 706.359 315.674C703.684 317.193 700.688 317.596 697.888 318.084C674.621 322.097 667.349 348.261 670.86 369.703L673.702 387.034L687.397 443.543L700.605 473.414L706.763 483.055L716.864 498.798L726.574 524.057C728.706 532.096 729.82 539.87 730.615 548.118L732.203 564.641C732.37 566.452 734.474 567.428 735.783 567.093C736.842 566.828 738.291 564.822 738.054 563.136L733.471 529.755C730.67 517.578 726.881 505.861 721.196 494.827L706.247 469.847C692.719 447.235 687.425 423.244 682.479 397.692L680.236 386.073L677.157 365.3C676.474 355.394 677.059 345.558 681.699 336.53C683.608 332.838 686.492 328.561 690.406 326.666C695.199 324.34 701.705 322.988 706.846 324.214C709.842 324.925 711.653 329.049 713.018 331.557L738.639 378.94L752.85 404.993C754.271 407.584 752.85 411.053 751.401 413.436C745.355 423.258 730.879 429.987 722.604 423.035C714.077 415.86 708.1 406.693 701.775 397.651L687.899 377.825C687.16 376.766 685.865 376 684.973 376.209C684.179 376.404 683.148 378.313 683.719 379.441C688.358 388.637 694.001 397.038 700.201 405.327L711.277 420.109C720.737 432.746 733.791 435.588 747.096 426.281C752.418 422.561 756.389 418.256 758.73 411.973C772.439 415.191 786.441 410.858 795.747 400.953L802.323 391.298C805.667 393.29 808.997 394.084 812.786 394.307C826.788 395.143 840.581 389.222 847.923 376.947C851.239 371.416 849.665 364.813 849.135 358.46L851.88 361.232C856.366 369.243 860.977 376.92 867.651 383.607L867.637 383.579ZM696.996 334.12C699.462 333.396 702.165 333.66 704.868 331.989C701.134 329.063 696.146 329.634 692.12 331.543C687.662 333.66 684.931 337.478 682.841 341.797C681.351 344.862 679.818 348.303 681.88 351.591C687.258 345.99 686.115 337.269 696.982 334.106L696.996 334.12ZM691.075 349.515C693.332 343.873 697.888 340.989 703.74 338.718C700.479 336.14 696.648 338.007 693.806 340.222C689.431 343.65 684.694 350.546 687.745 354.712C689.766 353.569 690.267 351.535 691.061 349.515H691.075ZM702.75 376.543C709.535 372.642 715.206 369.229 720.347 364.046C715.289 363.587 711.193 366.554 707.25 369.55C705.035 371.235 701.608 373.311 702.764 376.543H702.75ZM721.614 368.797C716.223 370.371 710.538 373.91 706.777 379.051C712.949 378.382 718.104 374.426 721.614 368.797ZM733.359 422.882C737.497 421.252 740.52 418.702 743.85 416.361C746.845 414.258 749.911 412.6 751.624 409.145C746.079 397.261 734.53 382.813 723.69 391.102C720.082 393.861 717.936 397.33 718.591 402.193C719.385 408.086 721.085 414.23 723.802 419.51C725.697 423.202 729.319 424.47 733.359 422.868V422.882Z" fill="#FF743E"/>
<path d="M939.75 558.455C939.443 558.636 938.928 559.403 938.315 559.5L920.509 562.342L884.188 568.431L817.858 577.654L783.348 581.75L756.584 584.759L738.862 586.919C738.291 586.988 737.734 586.919 737.511 586.696C737.33 586.515 737.288 585.943 737.33 585.734L748.712 584.481L771.073 581.959L777.733 581.332L800.498 578.685L852.744 571.51L880.761 566.968L906.271 562.802L938.691 557.773C939.165 557.703 939.61 558.26 939.722 558.441L939.75 558.455Z" fill="#45403E"/>
<path d="M735.226 568.904C733.108 568.904 730.684 567.33 730.433 564.794L728.845 548.271C727.94 538.825 726.714 531.51 724.875 524.572L715.261 499.564L705.258 483.96L699.017 474.194L685.683 444.058L671.946 387.341L669.09 369.953C667.182 358.292 668.491 346.129 672.685 336.614C677.686 325.273 686.283 318.265 697.554 316.315L698.278 316.189C700.424 315.827 702.625 315.451 704.603 314.545C705.258 300.836 710.037 289.091 718.117 281.359C723.899 275.814 731.855 272.763 740.52 272.763C745.076 272.763 749.799 273.613 754.216 275.229C755.219 275.591 755.832 275.73 756.208 275.772L758.423 265.602C761.934 249.454 775.852 238.002 793.894 236.428C794.8 236.344 795.705 236.302 796.597 236.302C807.826 236.302 816.478 242.488 825.395 250.472L824.726 232.137L821.94 211.183L811.504 143.25L810.306 133.163L803.884 91.6174L801.947 81.419L799.523 69.6604C796.555 51.9805 794.87 32.1272 812.299 19.5047C818.596 14.935 826.37 12.4272 834.172 12.4272C844.078 12.4272 853.189 16.3281 859.835 23.4195C867.874 32.0017 873.53 44.0252 877.111 60.2004L890.123 114.689L896.49 141.522L904.501 175.433L914.839 227.052L918.824 250.861L922.557 276.873L927.824 314.615L930.764 334.496C931.418 338.927 933.62 342.674 935.946 346.645C937.172 348.735 938.426 350.88 939.485 353.179C942.076 358.822 941.979 365.147 941.895 371.249C941.895 372.182 941.867 373.116 941.867 374.035C941.84 383.927 940.391 393.513 938.997 402.777C938.524 405.898 938.036 409.13 937.618 412.349L934.497 435.769L932.073 457.322C930.889 467.924 932.199 478.234 933.606 489.129C933.773 490.397 933.926 491.664 934.093 492.946L941.686 531.329C942.313 534.506 941.491 537.32 939.443 539.048C938.691 539.675 937.716 540.037 936.699 540.037C935.918 540.037 935.18 539.828 934.609 539.438C933.536 538.713 932.575 537.222 932.282 535.815L926.626 508.383L923.171 484.963C921.387 472.898 921.359 460.345 923.087 445.465L924.661 431.84L928.827 406.107L930.304 391.743L931.767 370.525C928.27 369.898 925.581 368.365 923.421 365.774L922.028 364.102L927.712 361.093C924.438 359.811 921.095 357.846 920.914 355.478C920.872 354.879 920.969 353.374 922.989 352.538L926.821 350.964L919.701 338.857L900.935 315.688C897.048 310.881 893.342 306.297 888.675 302.647C887.421 304.667 886.014 306.339 883.394 307.217L881.054 307.997L881.151 298.203C880.789 298.914 880.385 300.056 880.162 300.725C879.298 303.218 878.211 306.339 875.578 308.29L871.482 311.327L876.164 294.302C876.164 294.232 876.038 293.981 875.732 293.745C875.453 294.121 875.077 294.873 874.812 295.403C873.99 297.033 873.071 298.872 871.273 299.596L868.194 300.836L868.891 297.59C868.947 297.311 869.016 297.005 869.1 296.67C869.462 295.068 870.298 291.432 869.546 290.276C865.213 288.464 860.434 288.13 855.809 287.823C854.764 287.754 853.733 287.684 852.702 287.601L845.025 286.96C844.064 286.876 843.27 286.834 842.517 286.834C840.26 286.834 838.519 287.197 837.098 287.977L829.087 310.714L828.906 310.951C827.958 312.149 826.273 312.734 823.765 312.734C822.427 312.734 821.132 312.567 820.282 312.428L807.562 310.296L796.89 308.081C796.249 307.941 795.622 307.788 794.981 307.635C793.448 307.259 792 306.911 790.606 306.911C790.286 306.911 789.979 306.924 789.687 306.966C789.91 310.547 792.236 313.654 794.549 316.273L794.744 316.496C797.67 319.812 800.192 322.668 803.87 325.19L811.783 330.637C822.72 335.68 832.695 338.132 842.267 338.132C843.59 338.132 844.928 338.091 846.237 337.993L860.128 336.99C860.378 336.92 860.615 336.879 860.866 336.879C862.134 336.879 863.123 337.868 863.123 339.122C863.123 340.487 862.008 341.56 860.573 341.56L853.51 344.053C852.994 344.235 852.716 344.332 853.51 346.979C853.719 347.648 853.928 348.331 854.025 348.986C855.377 358.278 857.871 364.882 862.092 370.371L869.866 380.486C870.507 381.322 870.577 382.562 870.033 383.677C869.532 384.68 868.654 385.279 867.679 385.279H866.94L866.397 384.763C860.072 378.424 855.53 371.124 851.504 364.06C851.949 368.741 852.005 373.464 849.442 377.755C842.587 389.208 829.867 396.048 815.405 396.048C814.5 396.048 813.594 396.02 812.689 395.965C808.871 395.742 805.778 394.961 802.88 393.499L797.127 401.942L797.029 402.039C789.492 410.064 778.806 414.662 767.73 414.662C765.083 414.662 762.422 414.397 759.802 413.881C757.476 419.329 753.812 423.606 748.099 427.605C742.596 431.464 737.009 433.414 731.52 433.414C723.412 433.414 715.93 429.137 709.87 421.056L698.794 406.274C691.591 396.647 686.297 388.344 682.145 380.124C681.643 379.121 681.685 377.825 682.256 376.571C682.507 376.014 683.245 374.704 684.555 374.384C684.792 374.328 685.043 374.3 685.293 374.3C686.937 374.3 688.512 375.512 689.348 376.71L703.224 396.536C703.865 397.441 704.492 398.361 705.119 399.267C710.845 407.5 716.251 415.275 723.746 421.586C725.669 423.216 728.079 424.038 730.879 424.038C737.65 424.038 745.829 419.05 749.911 412.419C751.582 409.702 752.112 407.208 751.318 405.745L737.107 379.692L711.486 332.309C711.333 332.016 711.165 331.696 710.984 331.375C709.856 329.23 708.323 326.29 706.456 325.844C705.314 325.566 704.032 325.44 702.667 325.44C699.017 325.44 694.725 326.457 691.187 328.171C688.372 329.536 685.628 332.671 683.273 337.255C679.442 344.694 678.104 353.263 678.912 365.035L681.992 385.738L684.221 397.274C689.264 423.355 694.516 446.733 707.766 468.858L722.743 493.88L722.771 493.935C727.995 504.092 732.064 515.656 735.198 529.267V529.337L739.81 562.802C740.172 565.407 738.138 568.235 736.215 568.709C735.909 568.793 735.574 568.821 735.24 568.821L735.226 568.904ZM739.921 282.348C734.669 282.348 729.807 284.159 725.474 287.74C718.786 293.271 715.094 302.09 715.052 312.595C715.038 316.886 715.415 320.258 717.295 323.796L738.208 362.89L758.479 399.406C760.165 402.443 762.561 404.282 765.57 404.867C767.103 405.16 768.677 405.313 770.238 405.313C780.951 405.313 790.899 398.5 795.12 388.33C794.786 383.927 793.755 380.709 792.334 377.268L783.612 356.175L781.718 351.438L756.389 287.628C750.719 284.117 745.174 282.348 739.921 282.348ZM794.911 245.414C786.106 245.414 777.399 250.402 772.174 258.413C767.981 264.849 766.601 272.498 765.877 278.433C764.999 285.594 767.409 292.212 770.168 298.941L787.263 340.612L795.134 359.518L802.045 376.488C802.254 377.003 802.463 377.56 802.672 378.132C803.549 380.5 804.538 383.175 806.336 384.108C809.624 385.808 813.204 386.672 816.966 386.672C823.208 386.672 829.742 384.276 835.384 379.915C845.499 372.113 842.699 362.82 838.839 349.961C838.533 348.93 838.212 347.871 837.892 346.798C813.385 345.266 784.602 329.676 779.892 306.52C777.844 296.475 781.119 281.47 786.886 274.407C789.074 271.718 791.568 270.311 794.089 270.311C794.465 270.311 794.828 270.339 795.204 270.394L831.692 276.371C820.505 258.538 809.944 248.326 800.247 246.027C798.492 245.609 796.695 245.4 794.897 245.4L794.911 245.414ZM843.27 277.569C858.275 278.433 877.919 281.261 887.839 289.718L894.108 295.054L903.944 304.918C906.368 307.356 908.528 309.989 910.604 312.525C912.861 315.284 915.173 318.126 917.904 320.759L914.463 293.299C908.751 247.671 901.854 207.519 893.412 170.543L888.493 149.018L874.882 90.28L871.064 78.3958L868.947 68.7268C867.553 62.3877 865.492 56.1601 862.817 50.2528L858.414 40.5143L858.386 40.4168C856.352 34.1195 852.465 28.6162 847.714 25.3422C843.716 22.5836 838.993 21.1209 834.061 21.1209C829.937 21.1209 825.687 22.1519 821.759 24.1024C814.333 27.7944 808.788 35.1365 807.659 42.7852C806.586 50.016 806.823 57.4558 808.412 66.2052L813.622 91.3109L813.706 99.517L815.378 111.206L816.618 119.649L817.774 126.685L828.85 203.13L835.732 252.255L836.457 265.713C837.488 270.394 840.553 274.449 843.27 277.542V277.569ZM796.207 279.952C794.438 280.537 788.433 289.676 789.882 297.924C790.509 301.505 794.911 302.731 797.475 303.149L822.204 307.106C822.441 307.147 822.678 307.161 822.929 307.161C823.932 307.161 824.893 306.855 825.311 306.395C825.437 306.214 825.632 305.406 825.757 304.862C825.896 304.291 826.05 303.65 826.273 303.01L829.923 292.379C830.034 292.045 830.16 291.711 830.299 291.362C831.302 288.646 831.622 287.238 830.243 285.998C829.965 285.803 828.571 285.72 827.819 285.678C827.136 285.636 826.426 285.594 825.799 285.483L796.221 279.952H796.207Z" fill="#45403E"/>
<path d="M867.637 383.579C860.964 376.892 856.366 369.215 851.866 361.204L849.121 358.432C849.665 364.785 851.225 371.389 847.909 376.92C840.553 389.208 826.774 395.115 812.772 394.279C808.983 394.056 805.653 393.262 802.309 391.27L795.733 400.925C786.427 410.831 772.411 415.164 758.716 411.945C756.375 418.229 752.39 422.533 747.082 426.253C733.777 435.56 720.723 432.718 711.263 420.081L700.187 405.3C693.973 397.01 688.344 388.595 683.705 379.414C683.134 378.285 684.165 376.376 684.959 376.181C685.865 375.972 687.146 376.739 687.885 377.798L701.761 397.623C708.086 406.651 714.063 415.832 722.59 423.007C730.865 429.973 745.341 423.23 751.387 413.408C752.85 411.039 754.257 407.57 752.836 404.965L738.626 378.912L713.004 331.529C711.639 329.021 709.828 324.897 706.832 324.187C701.691 322.974 695.185 324.326 690.392 326.639C686.464 328.533 683.58 332.811 681.685 336.503C677.046 345.531 676.446 355.367 677.143 365.273L680.222 386.045L682.465 397.665C687.411 423.216 692.691 447.207 706.233 469.819L721.183 494.799C726.867 505.834 730.656 517.551 733.457 529.727L738.04 563.109C738.277 564.795 736.828 566.801 735.769 567.065C734.446 567.4 732.356 566.424 732.189 564.613L730.601 548.09C729.806 539.842 728.692 532.068 726.56 524.029L716.85 498.77L706.749 483.027L700.591 473.386L687.383 443.515L673.688 387.007L670.846 369.675C667.335 348.233 674.607 322.069 697.874 318.057C700.674 317.569 703.67 317.165 706.345 315.646C706.735 303.665 710.427 291.181 719.357 282.641C728.567 273.822 742.123 272.694 753.63 276.887C754.968 277.375 757.518 278.183 757.824 276.72L760.165 265.978C763.745 249.524 777.747 239.605 794.075 238.184C807.603 236.999 817.3 245.317 827.331 254.624L826.495 231.998L823.695 210.96L813.246 142.999L812.048 132.968L805.625 91.3529L803.675 81.0849L801.25 69.2984C798.158 50.8383 797.252 32.5733 813.344 20.9261C826.899 11.1179 846.488 11.7309 858.567 24.6181C867.024 33.6322 872.207 46.0875 875.411 60.5769L888.438 115.093L894.805 141.927L902.816 175.837L913.139 227.4L917.11 251.154L920.844 277.138L926.11 314.88L929.05 334.789C930.123 342.02 934.929 347.439 937.911 353.946C940.711 360.076 940.154 367.348 940.126 374.064C940.084 387.118 937.604 399.35 935.891 412.14L932.77 435.56L930.345 457.155C928.98 469.262 930.861 481.132 932.366 493.267L939.973 531.72C940.418 534.005 940.014 536.317 938.329 537.738C937.479 538.449 936.239 538.435 935.612 538.017C934.985 537.599 934.247 536.54 934.024 535.495L928.367 508.119L924.912 484.754C922.975 471.644 923.31 458.855 924.828 445.717L926.403 432.091L930.568 406.386L932.045 391.98L933.62 369.048C929.955 368.714 927.099 367.516 924.759 364.701L932.24 360.758C925.748 359.184 920.37 355.59 923.644 354.238L929.356 351.884L921.136 337.924L902.997 315.535C898.399 309.864 894.052 304.319 888.131 300.126C886.585 302.815 885.456 304.723 882.809 305.601L882.879 297.785C882.879 296.601 882.099 295.751 881.318 295.891C878.337 296.42 878.769 303.776 874.492 306.939L877.821 294.832C878.1 293.801 877.403 292.853 876.595 292.282C873.711 290.29 873.307 296.894 870.549 298.008C871.106 295.403 872.471 290.652 870.535 288.855C864.837 286.347 858.623 286.375 852.785 285.887L845.109 285.246C841.849 284.968 838.421 285.01 835.579 286.835L827.457 309.892C826.245 311.425 822.385 311.035 820.519 310.728L807.799 308.597L797.196 306.395C794.062 305.741 791.038 304.556 787.903 305.601C787.541 310.282 790.244 314.128 793.184 317.471C796.235 320.927 798.896 323.964 802.839 326.68L810.878 332.211C822.107 337.408 833.935 340.682 846.335 339.791L860.434 338.774C861.646 338.286 861.618 340.055 860.281 339.819L852.883 342.438C849.748 343.552 851.922 347.105 852.242 349.278C853.426 357.47 855.6 364.924 860.657 371.486L868.431 381.601C868.877 382.186 868.348 383.579 867.623 383.552L867.637 383.579ZM886.71 291.07L892.924 296.35L902.718 306.158C908.737 312.191 912.902 319.324 920.245 325.162L916.232 293.09C911.036 251.586 904.432 210.793 895.139 170.167L890.221 148.642L876.595 89.8204L872.792 77.9502L870.688 68.3649C869.267 61.8864 867.177 55.5753 864.447 49.5288L860.086 39.8877C858.093 33.7158 854.206 27.6832 848.745 23.8936C840.664 18.3069 830.257 17.9168 821.006 22.5283C813.887 26.0671 807.297 33.3953 805.946 42.5209C804.761 50.5458 805.249 58.4313 806.712 66.512L811.895 91.4923L811.978 99.6426L813.664 111.443L814.904 119.9L816.074 126.963L827.15 203.381L834.019 252.436L834.743 265.964C835.816 271.063 839.048 275.452 842.49 279.283C856.087 280.022 876.832 282.613 886.752 291.056L886.71 291.07ZM839.243 345.113C816.005 344.11 786.357 329.425 781.634 306.172C778.903 292.784 786.106 270.687 794.925 272.136L835.217 278.74C827.317 265.574 814.723 247.657 800.665 244.328C789.032 241.569 777.12 247.574 770.683 257.452C766.643 263.666 765.013 270.882 764.121 278.224C763.23 285.567 765.696 292.714 768.524 299.624L785.619 341.295L793.49 360.201L800.401 377.17C801.557 379.999 802.588 384.178 805.514 385.697C815.837 391.047 827.652 388.121 836.443 381.336C848.731 371.848 843.548 360.145 839.215 345.141L839.243 345.113ZM796.918 388.623C796.597 383.914 795.552 380.417 793.964 376.599L785.242 355.506L783.348 350.783L757.81 286.431C746.595 279.311 734.502 277.974 724.359 286.375C716.529 292.853 713.339 302.675 713.297 312.581C713.283 316.886 713.645 320.662 715.749 324.619L736.661 363.712L756.946 400.242C758.716 403.433 761.446 405.843 765.25 406.581C778.43 409.131 791.888 401.287 796.918 388.595V388.623ZM827.944 303.595L831.595 292.965C832.5 290.332 834.186 287.169 831.414 284.689C830.313 283.783 827.666 284.048 826.105 283.756L796.416 278.197C793.504 277.653 786.524 288.938 788.154 298.231C788.907 302.522 793.421 304.278 797.21 304.891L821.94 308.847C823.57 309.112 825.562 308.722 826.621 307.607C827.304 306.883 827.429 305.141 827.958 303.595H827.944Z" fill="#45403E"/>
<path d="M733.359 422.882C729.305 424.484 725.696 423.216 723.802 419.524C721.085 414.244 719.399 408.099 718.591 402.206C717.936 397.344 720.082 393.861 723.69 391.116C734.53 382.827 746.079 397.274 751.624 409.158C749.911 412.614 746.845 414.271 743.85 416.375C740.52 418.716 737.497 421.252 733.359 422.896V422.882ZM746.483 408.936C745.564 405.578 742.972 403.209 740.91 400.395C738.639 397.288 736.16 394.209 732.119 393.164C727.563 391.994 722.409 396.285 723.035 401.12C723.871 407.696 726.546 413.617 729.751 419.482C735.756 417.963 741.217 412.85 746.483 408.936Z" fill="#45403E"/>
<path d="M696.996 334.12C686.129 337.283 687.286 345.991 681.894 351.605C679.832 348.317 681.365 344.876 682.855 341.811C684.945 337.492 687.676 333.675 692.134 331.557C696.146 329.634 701.134 329.077 704.882 332.003C702.179 333.675 699.476 333.424 697.01 334.134L696.996 334.12Z" fill="#45403E"/>
<path d="M691.075 349.515C690.267 351.522 689.779 353.556 687.759 354.712C684.708 350.546 689.431 343.664 693.82 340.223C696.648 338.007 700.493 336.14 703.753 338.718C697.902 340.989 693.346 343.873 691.089 349.515H691.075Z" fill="#45403E"/>
<path d="M702.75 376.544C701.594 373.325 705.021 371.235 707.237 369.55C711.179 366.554 715.275 363.573 720.333 364.046C715.192 369.229 709.535 372.643 702.736 376.544H702.75Z" fill="#45403E"/>
<path d="M721.614 368.797C718.104 374.426 712.949 378.382 706.777 379.051C710.524 373.91 716.223 370.385 721.614 368.797Z" fill="#45403E"/>
<path d="M886.71 291.069C876.79 282.627 856.046 280.035 842.448 279.297C839.02 275.465 835.788 271.091 834.702 265.978L833.977 252.45L827.108 203.395L816.032 126.977L814.862 119.913L813.622 111.456L811.936 99.656L806.656 66.5114C805.193 58.4308 804.706 50.5313 805.89 42.5204C807.241 33.3809 813.817 26.0665 820.951 22.5278C830.201 17.9163 839.452 17.6376 848.007 22.472C859.835 29.1455 866.55 52.1056 868.543 58.2914L876.554 89.8199L890.179 148.641L895.097 170.166C904.39 210.806 910.98 251.586 916.19 293.09L920.203 325.161C912.847 319.324 908.681 312.191 902.676 306.158L892.882 296.35L886.668 291.069H886.71Z" fill="#FF743E"/>
<path d="M796.918 388.623C791.874 401.301 778.43 409.159 765.25 406.609C761.446 405.871 758.716 403.46 756.946 400.27L736.661 363.74L715.749 324.646C713.631 320.69 713.269 316.914 713.297 312.609C713.339 302.703 716.515 292.881 724.359 286.403C734.516 278.001 746.595 279.339 757.81 286.458L783.348 350.811L785.242 355.534L793.964 376.627C795.538 380.444 796.597 383.927 796.918 388.65V388.623ZM723.342 302.007C726.936 295.918 732.077 292.282 738.779 291.112L750.705 289.022C748.141 286.403 744.7 285.595 741.342 285.999C731.311 287.197 722.645 293.828 718.925 303.107C718.229 304.835 717.964 306.716 719.051 308.109C721.28 306.423 722.074 304.18 723.356 302.021L723.342 302.007ZM739.211 299.164L745.898 296.615C746.776 296.281 747.138 296.002 747.027 295.18C746.553 291.989 727.522 294.483 724.61 310.115C728.901 309.655 729.124 303.01 739.211 299.164ZM759.691 335.639C761.14 334.733 762.658 333.967 762.324 332.56C756.473 332.866 752.168 335.736 747.779 338.592C745.16 340.292 742.499 341.616 740.423 344.305C740.256 344.514 740.966 345.336 741.454 345.168C748.044 343.051 753.575 339.414 759.691 335.625V335.639ZM764.121 338.049C756.779 340.069 750.579 343.497 745.271 348.665C752.767 348.066 760.137 344.026 764.121 338.049ZM793.518 388.441C796.193 385.446 786.441 372.322 780.227 367.265C775.755 363.614 770.265 363.823 765.473 366.025C757.824 369.536 754.675 376.557 756.305 384.75C758.2 394.237 759.092 406.595 769.095 403.99C778.471 401.552 786.831 395.923 793.504 388.455L793.518 388.441Z" fill="#FF743E"/>
<path d="M839.243 345.112C843.576 360.131 848.745 371.834 836.471 381.308C827.68 388.093 815.851 391.019 805.542 385.669C802.616 384.15 801.571 379.971 800.428 377.142L793.518 360.173L785.647 341.267L768.552 299.596C765.724 292.686 763.216 285.748 764.149 278.197C765.083 270.645 766.671 263.637 770.711 257.424C777.148 247.546 789.046 241.527 800.693 244.3C814.751 247.629 827.331 265.56 835.245 278.712L794.953 272.108C786.134 270.659 778.931 292.769 781.662 306.144C786.399 329.397 816.032 344.081 839.271 345.085L839.243 345.112ZM805.026 254.052C808.203 254.665 805.695 249.106 795.399 249.399C781.787 249.789 770.474 260.781 772.815 264.223C775.03 267.455 784.003 249.998 805.026 254.052ZM802.477 259.973C795.371 253.035 777.817 264.446 780.269 267.399C781.523 268.904 792.25 260.893 802.477 259.973ZM837.446 373.701C838.714 373.088 840.428 370.831 839.982 369.619C836.694 360.549 830.076 349.39 821.438 346.102C816.729 344.318 811.797 346.102 808.022 349.25C804.845 351.897 802.853 355.924 802.881 360.8C802.964 372.336 805.165 389.277 814.444 384.805L837.446 373.715V373.701Z" fill="#FF743E"/>
<path d="M827.944 303.595C827.415 305.141 827.276 306.883 826.607 307.607C825.562 308.722 823.556 309.112 821.926 308.847L797.196 304.89C793.407 304.291 788.893 302.522 788.14 298.231C786.51 288.938 793.49 277.653 796.402 278.197L826.091 283.756C827.638 284.048 830.285 283.769 831.4 284.689C834.158 287.169 832.486 290.331 831.581 292.965L827.931 303.595H827.944Z" fill="#FF743E"/>
<path d="M746.483 408.936C741.203 412.851 735.755 417.964 729.751 419.482C726.546 413.617 723.871 407.71 723.035 401.12C722.422 396.272 727.563 391.994 732.119 393.165C736.146 394.209 738.626 397.289 740.91 400.395C742.972 403.21 745.578 405.578 746.483 408.936Z" fill="#FF743E"/>
<path d="M849.985 255.362L846.781 233.238L859.946 231.176L857.049 214.959L850.849 174.626L836.415 175.601L834.869 161.961C834.506 158.743 849.776 155.957 852.939 141.258L865.812 139.419C866.592 139.308 867.428 139.363 867.916 139.628C868.556 139.976 868.863 140.952 869.016 141.983L872.959 168.412L878.198 203.925L883.018 228.083L896.031 227.052L899.597 248.522L849.985 255.376V255.362Z" fill="#45403E"/>
<path d="M793.518 388.441C786.845 395.909 778.485 401.552 769.109 403.976C759.092 406.581 758.214 394.223 756.319 384.736C754.675 376.543 757.838 369.536 765.487 366.011C770.279 363.809 775.755 363.6 780.241 367.251C786.455 372.308 796.193 385.446 793.532 388.428L793.518 388.441ZM789.91 386.087C786.956 380.89 783.292 376.125 779.112 371.946C775.936 368.755 771.45 368.491 767.437 370.051C756.138 374.44 761.042 386.979 764.999 398.932C772.871 400.409 783.919 393.053 789.896 386.101L789.91 386.087Z" fill="#45403E"/>
<path d="M723.342 302.006C722.06 304.166 721.266 306.409 719.037 308.095C717.95 306.701 718.229 304.807 718.912 303.093C722.632 293.828 731.297 287.183 741.328 285.984C744.7 285.58 748.127 286.388 750.691 289.008L738.765 291.097C732.064 292.268 726.923 295.904 723.328 301.992L723.342 302.006Z" fill="#45403E"/>
<path d="M739.211 299.164C729.124 303.01 728.901 309.655 724.61 310.115C727.508 294.483 746.553 291.989 747.027 295.18C747.152 296.002 746.776 296.28 745.898 296.615L739.211 299.164Z" fill="#45403E"/>
<path d="M759.691 335.639C753.575 339.428 748.044 343.065 741.454 345.182C740.966 345.336 740.27 344.528 740.423 344.319C742.499 341.63 745.174 340.306 747.779 338.606C752.154 335.75 756.473 332.88 762.324 332.574C762.672 333.967 761.14 334.747 759.691 335.653V335.639Z" fill="#45403E"/>
<path d="M764.121 338.049C760.137 344.04 752.767 348.067 745.271 348.666C750.579 343.483 756.793 340.056 764.121 338.049Z" fill="#45403E"/>
<path d="M837.446 373.701L814.444 384.791C805.165 389.263 802.964 372.322 802.881 360.786C802.853 355.91 804.845 351.884 808.021 349.236C811.797 346.088 816.729 344.304 821.438 346.088C830.09 349.376 836.708 360.535 839.982 369.605C840.428 370.831 838.7 373.088 837.446 373.687V373.701ZM835.133 369.354C834.883 367.056 833.559 366.011 832.681 364.534C829.742 359.602 826.9 354.349 821.982 351.006C817.872 348.219 811.393 350.671 809.136 354.823C806.614 359.435 807.45 364.45 808.453 369.145L810.919 380.681C819.376 377.546 827.331 374.356 835.133 369.354Z" fill="#45403E"/>
<path d="M805.026 254.052C784.016 249.998 775.03 267.469 772.815 264.223C770.474 260.781 781.787 249.803 795.399 249.399C805.695 249.106 808.203 254.665 805.026 254.052Z" fill="#45403E"/>
<path d="M802.477 259.973C792.25 260.879 781.523 268.904 780.269 267.399C777.817 264.446 795.371 253.049 802.477 259.973Z" fill="#45403E"/>
<path d="M789.91 386.087C783.933 393.053 772.885 400.395 765.013 398.919C761.042 386.965 756.138 374.44 767.451 370.037C771.464 368.477 775.936 368.742 779.126 371.932C783.292 376.112 786.956 380.876 789.924 386.073L789.91 386.087Z" fill="#FF743E"/>
<path d="M835.133 369.355C827.331 374.342 819.376 377.547 810.919 380.681L808.453 369.146C807.45 364.45 806.614 359.435 809.136 354.823C811.393 350.686 817.871 348.22 821.981 351.006C826.899 354.35 829.742 359.602 832.681 364.534C833.559 366.025 834.897 367.07 835.133 369.355Z" fill="#FF743E"/>
<path d="M852.145 121.098C851.406 122.951 847.477 123.021 845.555 122.923L845.499 109.312L838.115 110.468L837.822 123.926C835.9 125.32 833.378 125.849 830.842 125.32L830.564 112.349C828.961 111.081 826.44 112.446 825.005 112.154C823.333 111.276 823.319 107.96 823.57 106.289C825.855 105.007 828.181 104.993 830.745 104.324L830.926 95.1845C828.892 95.2681 826.426 96.2155 824.601 95.4075C823.277 94.8223 822.72 90.8935 823.737 89.8765C825.381 88.2185 828.321 88.2882 830.731 87.6474L831.344 73.4504C833.489 72.4752 835.872 72.3776 838.212 72.8792L838.171 86.073C841.291 86.1287 843.771 85.8501 845.917 84.4568L846.168 71.1795C848.327 70.0649 850.807 69.6192 853.008 70.2601L853.134 83.6628L859.278 83.3283C860.713 83.8019 861.395 88.0653 860.267 89.0545L853.287 91.1164C852.799 94.3487 852.771 97.3998 853.371 100.521L859.891 99.5871C861.033 101.454 861.312 103.892 860.81 106.275L853.064 107.765L852.145 121.098ZM845.583 101.259L845.819 91.827L837.864 93.6381L838.226 102.624C840.873 102.513 843.186 102.262 845.583 101.259Z" fill="#45403E"/>
</svg>
