<svg width="258" height="263" viewBox="0 0 258 263" fill="none" xmlns="http://www.w3.org/2000/svg">
<path d="M7.76962 215.006H0.929199V182.205H10.2053L18.2676 199.05L21.3431 206.544H21.8344L24.8149 199.05L32.7246 182.205H41.9593V215.006H35.1726V197.482L35.3666 192.442H34.9249L32.9722 197.482L25.5993 213.049H17.3429L9.96995 197.482L8.01731 192.442H7.52606L7.77375 197.482V215.006H7.76962Z" fill="white"/>
<path d="M52.899 215.006H46.0586V182.205H52.899V215.006ZM73.4161 188.366H48.0154V182.2H73.4161V188.366ZM72.6855 201.541H48.0154V195.471H72.6855V201.541ZM73.4161 215.006H48.0154V208.84H73.4161V215.006Z" fill="white"/>
<path d="M83.7205 215.006H76.8801V182.205H83.7205V215.006ZM103.412 215.006H78.841V208.84H103.412V215.006Z" fill="white"/>
<path d="M113.278 215.006H106.438V182.205H113.278V215.006ZM134.378 201.591H108.391V195.425H134.378V201.591ZM137.75 215.006H130.91V182.205H137.75V215.006Z" fill="white"/>
<path d="M158.556 215.498C155.001 215.498 151.918 214.803 149.3 213.417C146.679 212.031 144.656 210.073 143.224 207.541C141.791 205.009 141.073 202.033 141.073 198.603C141.073 195.173 141.787 192.198 143.224 189.665C144.656 187.133 146.683 185.176 149.3 183.789C151.922 182.403 155.001 181.708 158.556 181.708C162.11 181.708 165.33 182.403 167.935 183.789C170.54 185.176 172.558 187.133 173.991 189.665C175.423 192.198 176.142 195.169 176.142 198.603C176.142 202.037 175.423 205.009 173.991 207.541C172.558 210.073 170.54 212.031 167.935 213.417C165.33 214.803 162.201 215.498 158.556 215.498ZM158.556 208.931C161 208.931 162.977 208.592 164.492 207.901C166.003 207.214 167.118 206.117 167.836 204.595C168.554 203.08 168.909 201.078 168.909 198.595C168.909 196.112 168.546 194.076 167.836 192.574C167.122 191.072 166.007 189.976 164.492 189.297C162.981 188.614 160.995 188.267 158.556 188.267C156.116 188.267 154.143 188.606 152.644 189.297C151.146 189.984 150.047 191.072 149.346 192.574C148.644 194.076 148.297 196.087 148.297 198.595C148.297 201.102 148.644 203.076 149.346 204.595C150.047 206.109 151.146 207.214 152.644 207.901C154.143 208.592 156.112 208.931 158.556 208.931Z" fill="white"/>
<path d="M186.306 215.006H179.466V182.205H197.3C199.933 182.205 202.192 182.59 204.066 183.359C205.94 184.129 207.364 185.238 208.343 186.69C209.321 188.143 209.812 189.91 209.812 191.999C209.812 193.799 209.465 195.334 208.764 196.625C208.062 197.916 207.013 198.93 205.618 199.687C204.214 200.44 202.493 200.912 200.445 201.111V201.5C201.878 201.864 202.947 202.423 203.674 203.188C204.392 203.958 205.04 204.905 205.626 206.056L210.559 215.014H202.695L198.006 206.345C197.551 205.497 197.056 204.823 196.536 204.314C196.016 203.805 195.363 203.449 194.583 203.234C193.803 203.023 192.759 202.915 191.458 202.915H186.327V215.006H186.315H186.306ZM186.306 188.366V197.718H197.246C199.071 197.718 200.429 197.383 201.32 196.716C202.216 196.05 202.666 194.817 202.666 193.017C202.666 191.217 202.216 190.079 201.32 189.396C200.425 188.71 199.062 188.366 197.246 188.366H186.306Z" fill="white"/>
<path d="M226.114 215.006H218.493L232.9 182.205H242.618L257.025 215.006H249.26L239.931 193.464L237.924 188.474H237.441L235.489 193.464L226.109 215.006H226.114ZM248.922 207.467H226.163V201.301H248.922V207.467Z" fill="white"/>
<path d="M18.4737 262.856C14.6881 262.856 11.4103 262.124 8.64031 260.659C5.87029 259.194 3.73189 257.125 2.24161 254.448C0.743075 251.779 0 248.63 0 245.005C0 241.38 0.747203 238.235 2.24161 235.562C3.74014 232.893 5.87442 230.82 8.64031 229.356C11.4103 227.891 14.6922 227.158 18.4737 227.158C22.2551 227.158 25.2109 227.729 27.8447 228.863C30.4785 230.001 32.5178 231.619 33.9585 233.721C35.4075 235.823 36.13 238.364 36.13 241.322V242.096H27.5103V241.322C27.5103 239.042 26.8168 237.354 25.4173 236.253C24.022 235.149 21.7638 234.598 18.6305 234.598C16.1206 234.598 14.0937 234.933 12.5662 235.608C11.0305 236.282 9.92418 237.362 9.2389 238.864C8.54949 240.366 8.20272 242.411 8.20272 244.993C8.20272 247.575 8.54124 249.577 9.2389 251.1C9.92831 252.615 11.0347 253.711 12.5662 254.386C14.1019 255.06 16.1206 255.395 18.6305 255.395C21.7638 255.395 24.022 254.845 25.4173 253.74C26.8126 252.635 27.5103 250.947 27.5103 248.671V247.893H36.13V248.671C36.13 251.601 35.4075 254.133 33.9585 256.252C32.5095 258.37 30.4785 260.001 27.8447 261.139C25.2109 262.277 22.09 262.844 18.4737 262.844V262.856Z" fill="white"/>
<path d="M45.835 262.343H37.1658L52.2915 227.676H63.3344L78.5592 262.343H69.6794L60.1846 240.148L58.071 234.764H57.4971L55.3835 240.148L45.8308 262.343H45.835ZM69.7826 254.68H45.418V247.695H69.7826V254.68Z" fill="white"/>
<path d="M88.5199 262.343H80.7754V227.676H88.5199V262.343ZM97.4492 262.343H82.8973V255.359H97.4492C99.8229 255.359 101.726 255.077 103.15 254.502C104.574 253.935 105.627 252.901 106.3 251.399C106.973 249.896 107.307 247.77 107.307 245.01C107.307 242.25 106.973 240.077 106.3 238.596C105.627 237.115 104.579 236.084 103.15 235.521C101.726 234.95 99.8229 234.665 97.4492 234.665H82.8973V227.68H97.4492C101.169 227.68 104.376 228.371 107.072 229.749C109.772 231.127 111.865 233.113 113.347 235.699C114.825 238.29 115.568 241.393 115.568 245.014C115.568 248.634 114.829 251.738 113.347 254.328C111.869 256.919 109.78 258.896 107.072 260.278C104.372 261.656 101.16 262.347 97.4492 262.347V262.356V262.343Z" fill="white"/>
<path d="M125.27 262.343H116.601L131.727 227.676H142.77L157.994 262.343H149.115L139.62 240.148L137.506 234.764H136.937L134.823 240.148L125.27 262.343ZM149.222 254.68H124.857V247.695H149.222V254.68Z" fill="white"/>
<path d="M175.902 262.343H168.157V227.676H175.902V262.343ZM184.835 262.343H170.283V255.359H184.835C187.209 255.359 189.112 255.077 190.536 254.502C191.96 253.935 193.013 252.901 193.686 251.399C194.359 249.896 194.693 247.77 194.693 245.01C194.693 242.25 194.359 240.077 193.686 238.596C193.013 237.115 191.965 236.084 190.536 235.521C189.112 234.95 187.209 234.665 184.835 234.665H170.283V227.68H184.835C188.555 227.68 191.762 228.371 194.462 229.749C197.162 231.127 199.251 233.113 200.737 235.699C202.215 238.29 202.958 241.393 202.958 245.014C202.958 248.634 202.219 251.738 200.737 254.328C199.259 256.919 197.17 258.896 194.462 260.278C191.762 261.656 188.551 262.347 184.835 262.347V262.356V262.343Z" fill="white"/>
<path d="M214.05 262.343H206.306V227.676H214.05V262.343Z" fill="white"/>
<path d="M224.478 262.343H215.809L230.934 227.676H241.977L257.202 262.343H248.322L238.827 240.148L236.714 234.764H236.14L234.026 240.148L224.474 262.343H224.478ZM248.421 254.68H224.057V247.695H248.421V254.68Z" fill="white"/>
<path d="M6.80398 150.885V126.745H29.3811V25.8834H5.94531V0.0174408H57.5519V126.745H78.4075V150.885H6.80398Z" fill="white"/>
<path d="M198.088 1.98205L103.053 143.854C101.038 146.85 103.193 150.893 106.801 150.893H127.612C129.102 150.893 130.526 150.123 131.36 148.911L226.358 7.03029C228.373 4.03445 226.218 0 222.61 0H201.808C200.317 0 198.893 0.769649 198.059 1.98205H198.096H198.088Z" fill="white"/>
<path d="M162.458 0.021243V22.6183H126.707C123.983 22.6183 121.774 24.8321 121.774 27.5631V36.4389C121.774 39.1699 119.566 41.3837 116.841 41.3837H104.134C101.41 41.3837 99.2012 39.1699 99.2012 36.4389V9.90668C99.2012 4.44465 103.618 0.0171051 109.068 0.0171051H162.458V0.021243Z" fill="#BDFF00"/>
<path d="M167.047 150.756V128.159H202.797C205.522 128.159 207.73 125.945 207.73 123.214V114.339C207.73 111.608 209.939 109.394 212.664 109.394H225.37C228.095 109.394 230.303 111.608 230.303 114.339V140.867C230.303 146.329 225.886 150.756 220.437 150.756H167.047Z" fill="#BDFF00"/>
</svg>
