<svg width="677" height="149" viewBox="0 0 677 149" fill="none" xmlns="http://www.w3.org/2000/svg">
<g clip-path="url(#clip0_123_54)">
<path d="M275.139 23.904V2.91182H168.579C159.203 2.91182 152.905 9.20315 152.905 18.5681V129.982C152.905 139.347 159.203 145.639 168.579 145.639H275.139V124.646H175.987V84.7713H254.484V63.7791H175.987V23.904H275.139Z" fill="white"/>
<path d="M331.557 42.0925V146.494H306.769V16.098C306.769 6.39957 313.167 7.62939e-05 323.084 7.62939e-05C328.047 7.62939e-05 333.623 2.68606 336.718 6.60688L414.178 106.466V2.06414H438.966V132.668C438.966 142.159 432.766 148.549 422.849 148.549C417.688 148.549 412.111 145.873 409.007 141.735L331.548 42.0835L331.557 42.0925Z" fill="white"/>
<path d="M478.798 146.495V2.06482H503.586V146.495H478.798Z" fill="white"/>
<path d="M653.675 48.6637H676.766V46.4194C676.766 10.456 644.425 2.91182 617.3 2.91182H601.184C560.325 2.91182 535.934 29.3571 535.934 73.6578V74.8926C535.934 119.193 560.325 145.639 601.184 145.639H617.3C644.425 145.639 676.766 138.094 676.766 102.131V99.8867H653.675C653.332 116.048 643.081 122.582 618.546 122.582H599.334C572.967 122.582 559.025 106.025 559.025 74.6853C559.025 43.3458 572.588 25.968 599.334 25.968H618.546C642.846 25.968 653.404 32.7641 653.684 48.6637H653.675Z" fill="white"/>
<path d="M95.1896 4.41665L3.70763 140.51C1.76754 143.385 3.84298 147.261 7.31709 147.261H27.3496C28.7844 147.261 30.156 146.522 30.9591 145.359L122.405 9.25684C124.345 6.38157 122.27 2.51483 118.795 2.51483H98.772C97.3372 2.51483 95.9656 3.25393 95.1625 4.41665H95.1986H95.1896Z" fill="white"/>
<path d="M60.8917 2.53404V24.2112H26.5115C23.8676 24.2112 21.729 26.3474 21.729 28.9883V37.4338C21.729 40.0747 19.5904 42.2109 16.9465 42.2109H4.78255C2.13861 42.2109 0 40.0747 0 37.4338V15.3601C0 8.27556 5.74808 2.53404 12.8407 2.53404H60.8917Z" fill="#CCFF2E"/>
<path d="M121.242 107.638C123.886 107.638 126.024 109.774 126.024 112.415V134.489C126.024 141.564 120.276 147.315 113.184 147.315H65.1957V125.638H99.5037C102.148 125.638 104.286 123.501 104.286 120.86V112.406C104.286 109.765 106.425 107.629 109.069 107.629H121.242V107.638Z" fill="#CCFF2E"/>
</g>
<defs>
<clipPath id="clip0_123_54">
<rect width="676.766" height="148.558" fill="white"/>
</clipPath>
</defs>
</svg>
