<svg width="460" height="239" viewBox="0 0 460 239" fill="none" xmlns="http://www.w3.org/2000/svg">
<path d="M45.505 85.2729H27.9942L0 18.8405H14.7376L36.5027 72.7794H37.3926L58.8591 18.8405H73.4992L45.505 85.2729Z" fill="#346872"/>
<path d="M112.573 86.2621C105.582 86.2621 99.4509 84.857 94.1726 82.0468C88.8944 79.2365 84.8229 75.2716 81.9583 70.1459C79.0876 65.0263 77.6553 58.9903 77.6553 52.0501C77.6553 45.11 79.0876 39.0802 81.9583 33.9545C84.829 28.8349 88.9005 24.8639 94.1726 22.0536C99.4509 19.2433 105.582 17.8381 112.573 17.8381C119.564 17.8381 126.074 19.2433 131.321 22.0536C136.563 24.8639 140.622 28.8288 143.487 33.9545C146.358 39.0802 147.79 45.11 147.79 52.0501C147.79 58.9903 146.358 65.0263 143.487 70.1459C140.616 75.2716 136.563 79.2365 131.321 82.0468C126.08 84.857 119.832 86.2621 112.573 86.2621ZM112.573 74.3673C117.717 74.3673 121.905 73.6098 125.135 72.0886C128.365 70.5674 130.773 68.1543 132.358 64.8492C133.942 61.5441 134.735 57.2797 134.735 52.0562C134.735 46.8328 133.942 42.4891 132.358 39.2145C130.773 35.9399 128.365 33.5452 125.135 32.024C121.905 30.5028 117.717 29.7451 112.573 29.7451C107.429 29.7451 103.437 30.5028 100.207 32.024C96.9763 33.5452 94.581 35.9399 93.0329 39.2145C91.4847 42.4891 90.7107 46.7656 90.7107 52.0562C90.7107 57.3469 91.4847 61.5441 93.0329 64.8492C94.581 68.1543 96.9702 70.5674 100.207 72.0886C103.437 73.6098 107.557 74.3673 112.573 74.3673Z" fill="#346872"/>
<path d="M190.028 86.2621C182.97 86.2621 176.838 84.857 171.627 82.0468C166.416 79.2365 162.393 75.2716 159.559 70.1459C156.725 65.0263 155.305 58.9903 155.305 52.0501C155.305 45.11 156.725 39.0802 159.559 33.9545C162.393 28.8349 166.416 24.8639 171.627 22.0536C176.838 19.2433 182.97 17.8381 190.028 17.8381C196.555 17.8381 202.26 18.8951 207.142 21.0089C212.024 23.1227 215.815 26.1468 218.516 30.0811C221.222 34.0155 222.575 38.7259 222.575 44.212V45.5988H208.922V44.212C208.922 39.3857 207.404 35.7689 204.369 33.3558C201.334 30.9426 196.616 29.739 190.223 29.739C185.146 29.739 181.007 30.4967 177.807 32.0179C174.607 33.5391 172.23 35.9338 170.682 39.2084C169.134 42.483 168.36 46.7595 168.36 52.0501C168.36 57.3407 169.134 61.5379 170.682 64.8431C172.23 68.1482 174.607 70.5613 177.807 72.0825C181.007 73.6037 185.146 74.3612 190.223 74.3612C196.616 74.3612 201.334 73.1577 204.369 70.7446C207.404 68.3314 208.922 64.7147 208.922 59.8884V58.5015H222.575V59.8884C222.575 65.3073 221.222 70.0054 218.516 73.9703C215.809 77.9352 212.018 80.9776 207.142 83.0914C202.26 85.2052 196.555 86.2621 190.028 86.2621Z" fill="#346872"/>
<path d="M244.238 85.2735H231.871V18.8411H244.238V85.2735ZM286.086 29.9416H235.534V18.835H286.086V29.9416ZM284.599 57.4089H235.534V46.3023H284.599V57.4089ZM286.086 85.2735H235.534V74.1668H286.086V85.2735ZM251.856 12.8907H238.697L251.655 0H266.198L279.253 12.8907H265.997L259.372 6.14598H258.482L251.856 12.8907Z" fill="#346872"/>
<path d="M326.342 85.2727H313.976V18.8403H326.342V85.2727ZM368.19 29.9409H317.639V18.8342H368.19V29.9409ZM366.703 57.4082H317.639V46.3016H366.703V57.4082ZM368.19 85.2727H317.639V74.1661H368.19V85.2727Z" fill="#346872"/>
<path d="M390.25 85.2729H377.883V18.8405H394.602L412.308 54.9342L418.439 69.5109H419.329L425.266 54.9342L442.575 18.8405H459.391V85.2729H447.025V47.2976L447.421 37.3821H446.531L442.575 47.2976L426.058 81.308H411.217L394.699 47.2976L390.646 37.3821H389.756L390.25 47.2976V85.2729Z" fill="#346872"/>
<path d="M14.6738 215.467H36.4146V140.451L15.7465 146.524V125.092L59.7583 110.448V215.467H80.4263V235.475H14.6738V215.467Z" fill="#346872"/>
<path d="M98.4253 163.313C98.4253 88.657 205.697 88.8342 205.697 163.313V182.6C205.697 257.078 98.4253 257.255 98.4253 182.6V163.313ZM121.769 182.6C121.769 227.967 182.353 227.967 182.353 182.6V163.313C182.353 118.66 121.769 118.122 121.769 163.313V182.6Z" fill="#346872"/>
<path d="M228.504 163.313C228.504 88.657 335.775 88.8342 335.775 163.313V182.6C335.775 257.078 228.504 257.255 228.504 182.6V163.313ZM251.848 182.6C251.848 227.967 312.432 227.967 312.432 182.6V163.313C312.432 118.66 251.848 118.122 251.848 163.313V182.6Z" fill="#346872"/>
<path d="M433.066 118.806L357.409 231.749C355.806 234.138 357.519 237.351 360.395 237.351H376.961C378.15 237.351 379.284 236.74 379.948 235.775L455.574 122.826C457.177 120.438 455.465 117.23 452.588 117.23H436.028C434.839 117.23 433.706 117.841 433.041 118.806H433.072H433.066Z" fill="#346872"/>
<path d="M404.702 117.242V135.233H376.238C374.069 135.233 372.313 136.993 372.313 139.168V146.236C372.313 148.411 370.558 150.171 368.388 150.171H358.27C356.101 150.171 354.345 148.411 354.345 146.236V125.116C354.345 120.767 357.862 117.248 362.196 117.248H404.702V117.242Z" fill="#AAE10E"/>
<path d="M408.356 237.241V219.25H436.819C438.989 219.25 440.745 217.49 440.745 215.315V208.247C440.745 206.072 442.5 204.312 444.67 204.312H454.787C456.957 204.312 458.713 206.072 458.713 208.247V229.366C458.713 233.716 455.196 237.235 450.862 237.235H408.356V237.241Z" fill="#AAE10E"/>
</svg>
