<svg width="170" height="196" viewBox="0 0 170 196" fill="none" xmlns="http://www.w3.org/2000/svg">
<path d="M128.387 2.56512L5.00069 186.121C2.38398 189.999 5.18325 195.227 9.86897 195.227H36.888C38.8231 195.227 40.6731 194.23 41.7563 192.661L165.094 9.09334C167.711 5.21531 164.912 3.05176e-05 160.226 3.05176e-05H133.219C131.284 3.05176e-05 129.434 0.996891 128.351 2.56512H128.4H128.387Z" fill="white"/>
<path d="M82.128 0.0259552V29.2631H35.7576C32.1915 29.2631 29.3071 32.1443 29.3071 35.7063V47.0972C29.3071 50.6591 26.4226 53.5403 22.8566 53.5403H6.45048C2.88446 53.5403 0 50.6591 0 47.0972V17.3251C0 7.76986 7.75275 0.0259552 17.3189 0.0259552H82.128Z" fill="#CCFF2E"/>
<path d="M163.525 141.785C167.091 141.785 169.976 144.666 169.976 148.228V178C169.976 187.544 162.223 195.3 152.657 195.3H87.933V166.062H134.206C137.772 166.062 140.657 163.181 140.657 159.619V148.216C140.657 144.654 143.541 141.773 147.107 141.773H163.525V141.785Z" fill="#CCFF2E"/>
</svg>
