<svg width="764" height="385" viewBox="0 0 764 385" fill="none" xmlns="http://www.w3.org/2000/svg">
  <path d="M63.5472 137.632H5.72743V113.904H148.368V137.632H90.2752V295H63.5472V137.632ZM164.133 111.177H190.043V191.906C196.952 173.36 210.043 164.087 229.317 164.087C243.499 164.087 254.499 168.633 262.318 177.724C270.136 186.633 274.045 199.543 274.045 216.452V295H247.59V218.089C247.59 207.907 245.408 200.179 241.044 194.906C236.68 189.633 230.135 186.997 221.407 186.997C211.225 186.997 203.407 190.997 197.952 198.997C192.679 206.998 190.043 218.543 190.043 233.635V295H164.133V111.177ZM351.774 297.182C338.683 297.182 327.319 294.545 317.683 289.273C308.228 283.818 300.864 276.09 295.591 266.09C290.318 256.09 287.682 244.544 287.682 231.453C287.682 218.362 290.409 206.725 295.864 196.543C301.319 186.361 308.773 178.451 318.228 172.815C327.865 166.997 338.683 164.087 350.684 164.087C369.593 164.087 384.412 169.997 395.139 181.815C405.867 193.452 411.231 209.452 411.231 229.816V239.635H314.137C315.046 250.726 318.774 259.544 325.319 266.09C331.865 272.454 340.683 275.636 351.774 275.636C361.957 275.636 369.866 273.545 375.502 269.363C381.139 264.999 385.412 259.363 388.321 252.453L411.776 261.454C407.049 272.181 399.685 280.818 389.685 287.363C379.866 293.909 367.229 297.182 351.774 297.182ZM383.957 219.725C383.412 208.634 380.23 200.179 374.411 194.361C368.593 188.543 360.502 185.633 350.138 185.633C340.32 185.633 332.047 188.724 325.319 194.906C318.774 200.907 314.864 209.179 313.592 219.725H383.957Z" fill="#45403E"/>
  <circle cx="619.102" cy="212.796" r="134.026" transform="rotate(0.0488355 619.102 212.796)" stroke="url(#paint0_linear_147_1312)" stroke-width="20"/>
  <path d="M574.527 273.95L575.787 287.458H662.663L663.553 273.724L628.936 266.186L610.253 266.186L574.527 273.95Z" fill="#FF8464"/>
  <path d="M628.171 269.03L612.727 268.125L618.772 164.989L620.707 131.978L636.151 132.884L628.171 269.03Z" fill="url(#paint1_linear_147_1312)"/>
  <path d="M616.291 138.235C611.014 155.185 590.388 161.451 579.433 162.098L577.68 195.544C593.895 194.651 608.085 187.972 613.899 183.863L616.291 138.235Z" fill="#FF8B6D"/>
  <defs>
    <linearGradient id="paint0_linear_147_1312" x1="453.691" y1="46.7476" x2="769.555" y2="285.732" gradientUnits="userSpaceOnUse">
      <stop stop-color="#FFD7CD"/>
      <stop offset="1" stop-color="#FF4B1C"/>
    </linearGradient>
    <linearGradient id="paint1_linear_147_1312" x1="467.947" y1="40.996" x2="783.123" y2="90.5032" gradientUnits="userSpaceOnUse">
      <stop stop-color="#FFD7CD"/>
      <stop offset="1" stop-color="#FF4B1C"/>
    </linearGradient>
  </defs>
</svg>
